<svg width="97" height="67" viewBox="0 0 97 67" fill="none" xmlns="http://www.w3.org/2000/svg">
<path d="M94.1882 9.10674C94.8376 9.4237 95.3656 9.89534 95.6987 10.4559C96.0317 11.0164 96.1531 11.6378 96.0459 12.2335C93.6965 25.3045 88.6284 35.1845 80.9783 41.6008C71.7356 49.3535 58.8592 52.1077 42.6433 49.8224L40.0605 64.1916C39.9597 64.7518 39.6614 65.2637 39.2024 65.6639C38.7435 66.0641 38.1442 66.3349 37.4788 66.4427C36.8134 66.5505 36.1113 66.4906 35.4595 66.2704C34.8077 66.0503 34.2349 65.6795 33.8122 65.2041L0.977471 28.2915C0.685716 27.9632 0.472978 27.5936 0.352122 27.2048C0.231266 26.816 0.204796 26.4161 0.274312 26.0294C0.343829 25.6426 0.507889 25.277 0.756576 24.9547C1.00526 24.6323 1.33342 24.3598 1.72121 24.1538L45.3553 0.986239C45.9171 0.687822 46.5831 0.539722 47.2708 0.560313C47.9584 0.580904 48.6375 0.769281 49.2236 1.10207C49.8098 1.43486 50.2773 1.89743 50.5682 2.43238C50.859 2.96733 50.9604 3.55112 50.8598 4.11134L48.2959 18.375C58.1155 19.889 65.736 19.9132 72.0664 18.4687C78.9066 16.9072 84.2404 13.6961 90.1479 9.35143C90.6778 8.96196 91.352 8.7287 92.0764 8.68419C92.8009 8.63969 93.5393 8.78616 94.1888 9.10316L94.1882 9.10674Z" fill="url(#paint0_linear_146_65)"/>
<defs>
<linearGradient id="paint0_linear_146_65" x1="97" y1="34" x2="-6" y2="34" gradientUnits="userSpaceOnUse">
<stop stop-color="#008BFF"/>
<stop offset="1" stop-color="#1D49A7"/>
</linearGradient>
</defs>
</svg>
