<svg width="75" height="83" viewBox="0 0 75 83" fill="none" xmlns="http://www.w3.org/2000/svg">
<path d="M11.7614 82.0698C11.0571 82.2316 10.35 82.1967 9.7386 81.9702C9.12724 81.7436 8.64216 81.3366 8.35103 80.806C1.96109 69.1635 -0.308603 58.2937 1.60721 48.4944C3.92144 36.6547 12.2039 26.418 26.2515 18.0013L19.227 5.20252C18.9532 4.7035 18.8634 4.1178 18.9687 3.51807C19.0741 2.91833 19.3699 2.33096 19.8196 1.82882C20.2693 1.32668 20.853 0.931861 21.4983 0.693348C22.1436 0.454835 22.8221 0.383123 23.4496 0.487107L72.1903 8.55315C72.6235 8.62499 73.0213 8.77875 73.3597 9.00515C73.6981 9.23155 73.9701 9.52588 74.1591 9.87036C74.3482 10.2148 74.4505 10.6023 74.4597 11.0094C74.469 11.4164 74.385 11.8346 74.213 12.2386L54.8434 57.6867C54.5941 58.2719 54.1692 58.8058 53.6215 59.2221C53.0738 59.6384 52.4273 59.9187 51.7622 60.0284C51.0971 60.1381 50.4428 60.0722 49.8803 59.8391C49.3178 59.6059 48.8719 59.2156 48.598 58.7166L41.625 46.0118C33.0366 51.0074 27.095 55.7792 23.08 60.8821C18.742 66.3966 16.6126 72.2469 14.7497 79.3396C14.5824 79.9756 14.2047 80.5809 13.6693 81.0709C13.134 81.5609 12.4676 81.9113 11.7632 82.073L11.7614 82.0698Z" fill="url(#paint0_linear_157_88)"/>
<defs>
<linearGradient id="paint0_linear_157_88" x1="-20.1012" y1="63.4424" x2="89.5956" y2="1.19607" gradientUnits="userSpaceOnUse">
<stop stop-color="#008BFF"/>
<stop offset="1" stop-color="#1D49A7"/>
</linearGradient>
</defs>
</svg>
