<svg width="83" height="74" viewBox="0 0 83 74" fill="none" xmlns="http://www.w3.org/2000/svg">
<path d="M0.937886 11.9204C0.763272 11.2192 0.785153 10.5115 1.00047 9.8961C1.2158 9.28069 1.61382 8.78823 2.13902 8.48743C13.6625 1.88522 24.4889 -0.58329 34.3216 1.15263C46.2017 3.24951 56.5885 11.343 65.2612 25.234L77.9291 17.9761C78.423 17.6932 79.007 17.5927 79.6085 17.687C80.2101 17.7814 80.8028 18.0664 81.3131 18.5068C81.8234 18.9472 82.2288 19.5236 82.4791 20.1644C82.7294 20.8052 82.8136 21.4823 82.7211 22.1117L75.5496 70.9919C75.4857 71.4264 75.3392 71.827 75.1191 72.1695C74.8989 72.512 74.6096 72.7893 74.2687 72.9846C73.9277 73.1799 73.5422 73.2893 73.1354 73.306C72.7286 73.3227 72.3089 73.2465 71.9018 73.0818L26.1064 54.5483C25.5167 54.3098 24.9751 53.8948 24.5489 53.3548C24.1226 52.8148 23.8305 52.1735 23.7086 51.5106C23.5868 50.8476 23.6406 50.1921 23.8635 49.6255C24.0863 49.0588 24.4684 48.6058 24.9622 48.3228L37.5371 41.1182C32.385 32.6228 27.5051 26.7697 22.3294 22.8488C16.7364 18.6126 10.848 16.5908 3.7224 14.8581C3.08342 14.7026 2.47136 14.336 1.97161 13.8097C1.47187 13.2834 1.10938 12.6235 0.934735 11.9222L0.937886 11.9204Z" fill="url(#paint0_linear_157_90)"/>
<defs>
<linearGradient id="paint0_linear_157_90" x1="18.9783" y1="-20.2782" x2="83.2244" y2="88.2595" gradientUnits="userSpaceOnUse">
<stop stop-color="#008BFF"/>
<stop offset="1" stop-color="#1D49A7"/>
</linearGradient>
</defs>
</svg>
