<svg width="60" height="97" viewBox="0 0 60 97" fill="none" xmlns="http://www.w3.org/2000/svg">
<path d="M22.9241 1.6912C23.4262 1.17154 24.0379 0.815081 24.6739 0.671565C25.3099 0.52805 25.9385 0.604632 26.4719 0.890627C38.1774 7.16443 46.0079 15.0376 49.7463 24.2962C54.2636 35.4822 52.9041 48.5796 45.7196 63.2956L58.5877 70.1925C59.0893 70.4614 59.484 70.9034 59.7228 71.4635C59.9616 72.0237 60.0339 72.6774 59.9309 73.3435C59.8278 74.0096 59.5539 74.6589 59.1431 75.2108C58.7322 75.7626 58.2026 76.1928 57.6199 76.4479L12.3668 96.2686C11.9645 96.4447 11.5472 96.5328 11.14 96.5276C10.7329 96.5224 10.3444 96.424 9.9981 96.2383C9.65175 96.0527 9.35474 95.7837 9.12498 95.4476C8.89523 95.1114 8.73751 94.7151 8.66137 94.2826L0.11084 45.6247C0.000618079 44.9982 0.0655767 44.319 0.297658 43.6713C0.52974 43.0237 0.918731 42.4361 1.41638 41.9815C1.91402 41.5268 2.49842 41.2251 3.09708 41.1138C3.69573 41.0025 4.2823 41.0865 4.78401 41.3553L17.5576 48.2016C22.0319 39.3305 24.4097 32.0904 24.992 25.6235C25.6207 18.6354 24.2149 12.5704 21.9083 5.60938C21.7016 4.98504 21.6881 4.27175 21.8696 3.56903C22.0512 2.86632 22.4187 2.20924 22.9209 1.68949L22.9241 1.6912Z" fill="url(#paint0_linear_146_63)"/>
<defs>
<linearGradient id="paint0_linear_146_63" x1="53.79" y1="8.42767" x2="1.79004" y2="111.928" gradientUnits="userSpaceOnUse">
<stop stop-color="#008BFF"/>
<stop offset="1" stop-color="#1D49A7"/>
</linearGradient>
</defs>
</svg>
