<svg width="72" height="89" viewBox="0 0 72 89" fill="none" xmlns="http://www.w3.org/2000/svg">
<path d="M71.6253 85.8642C71.5006 86.5759 71.1936 87.214 70.7473 87.6892C70.3009 88.1645 69.7374 88.4533 69.1353 88.5153C55.9247 89.8781 45.0272 87.7449 36.7429 82.1713C26.7333 75.4376 20.5202 63.8278 18.2247 47.6134L3.70198 49.1116C3.13578 49.17 2.56122 49.0251 2.04957 48.695C1.53793 48.3648 1.11171 47.8639 0.823804 47.2545C0.535895 46.645 0.398963 45.9537 0.429992 45.2665C0.461021 44.5792 0.658647 43.9261 0.998354 43.3883L27.3729 1.61406C27.6075 1.24281 27.9038 0.936007 28.2439 0.71219C28.584 0.488372 28.9609 0.352186 29.3518 0.311861C29.7427 0.271537 30.1394 0.327913 30.5181 0.47758C30.8967 0.627247 31.2494 0.867102 31.5548 1.18264L65.9023 36.6926C66.3447 37.1497 66.6715 37.7487 66.8421 38.4151C67.0128 39.0816 67.0199 39.7863 66.8625 40.4417C66.7051 41.0971 66.3901 41.6744 65.9566 42.1021C65.5231 42.5297 64.9903 42.7889 64.4241 42.8473L50.008 44.3345C51.273 54.1893 53.3606 61.5183 56.502 67.2009C59.8971 73.3411 64.4599 77.5767 70.271 82.0497C70.792 82.451 71.2029 83.0342 71.4464 83.718C71.6898 84.4017 71.7536 85.1519 71.6289 85.8638L71.6253 85.8642Z" fill="url(#paint0_linear_157_85)"/>
<defs>
<linearGradient id="paint0_linear_157_85" x1="42.079" y1="107.983" x2="27.3587" y2="-17.2823" gradientUnits="userSpaceOnUse">
<stop stop-color="#008BFF"/>
<stop offset="1" stop-color="#1D49A7"/>
</linearGradient>
</defs>
</svg>
