<svg width="414" height="112" viewBox="0 0 414 112" fill="none" xmlns="http://www.w3.org/2000/svg">
<path d="M16.168 111.328C10.6213 111.328 6.65333 109.749 4.264 106.592C1.87467 103.349 0.68 98.5707 0.68 92.256C0.68 85.856 3.368 67.808 8.744 38.112L1.96 24.416C11.6027 18.1867 20.392 15.072 28.328 15.072C34.8987 15.072 38.184 19.0827 38.184 27.104C38.184 29.4933 36.392 39.9893 32.808 58.592L38.824 53.6C51.2827 43.1893 57.512 34.3147 57.512 26.976C57.512 24.7573 57.1707 22.752 56.488 20.96C62.8027 17.12 68.776 15.2 74.408 15.2C82.7707 15.2 86.952 19.4667 86.952 28C86.952 37.5573 78.4613 47.2427 61.48 57.056C69.416 82.4853 77.992 98.1867 87.208 104.16C85.3307 106.037 82.5147 107.659 78.76 109.024C75.0907 110.475 71.8053 111.2 68.904 111.2C63.1013 111.2 58.4507 109.707 54.952 106.72C51.4533 103.733 48.296 98.2293 45.48 90.208L38.056 69.344L30.12 73.568C28.9253 80.5653 28.328 85.0453 28.328 87.008C28.328 95.2853 29.608 101.472 32.168 105.568C27.048 109.408 21.7147 111.328 16.168 111.328ZM133.509 10.976C133.509 14.2187 131.802 17.0347 128.389 19.424C124.976 21.728 121.093 22.88 116.741 22.88C112.389 22.88 108.933 22.0267 106.373 20.32C103.898 18.6133 102.661 16.3093 102.661 13.408C102.661 9.48266 104.496 6.41066 108.165 4.19199C111.834 1.97333 115.717 0.863998 119.813 0.863998C123.909 0.863998 127.194 1.71733 129.669 3.424C132.229 5.13066 133.509 7.64799 133.509 10.976ZM108.549 111.2C103.258 111.2 99.4183 109.877 97.029 107.232C94.6397 104.587 93.445 100.576 93.445 95.2C93.445 89.7387 96.1757 75.1893 101.637 51.552L94.469 40.8C105.136 34.4 113.541 31.2 119.685 31.2C123.184 31.2 125.658 31.968 127.109 33.504C128.56 34.9547 129.285 37.344 129.285 40.672C129.285 41.952 127.706 49.4613 124.549 63.2C121.392 76.9387 119.813 86.752 119.813 92.64C119.813 98.528 121.136 102.624 123.781 104.928C119.002 109.109 113.925 111.2 108.549 111.2ZM183.134 10.976C183.134 14.2187 181.427 17.0347 178.014 19.424C174.601 21.728 170.718 22.88 166.366 22.88C162.014 22.88 158.558 22.0267 155.998 20.32C153.523 18.6133 152.286 16.3093 152.286 13.408C152.286 9.48266 154.121 6.41066 157.79 4.19199C161.459 1.97333 165.342 0.863998 169.438 0.863998C173.534 0.863998 176.819 1.71733 179.294 3.424C181.854 5.13066 183.134 7.64799 183.134 10.976ZM158.174 111.2C152.883 111.2 149.043 109.877 146.654 107.232C144.265 104.587 143.07 100.576 143.07 95.2C143.07 89.7387 145.801 75.1893 151.262 51.552L144.094 40.8C154.761 34.4 163.166 31.2 169.31 31.2C172.809 31.2 175.283 31.968 176.734 33.504C178.185 34.9547 178.91 37.344 178.91 40.672C178.91 41.952 177.331 49.4613 174.174 63.2C171.017 76.9387 169.438 86.752 169.438 92.64C169.438 98.528 170.761 102.624 173.406 104.928C168.627 109.109 163.55 111.2 158.174 111.2ZM192.951 61.792C192.354 59.4027 192.055 57.184 192.055 55.136C192.055 50.9547 193.292 47.7973 195.767 45.664C198.242 43.5307 201.442 42.464 205.367 42.464C205.367 38.0267 204.215 33.2053 201.911 28C206.092 24.928 209.89 22.624 213.303 21.088C216.802 19.4667 220.471 18.656 224.311 18.656C228.151 18.656 230.796 19.3813 232.247 20.832C233.783 22.1973 234.551 24.3307 234.551 27.232C234.551 30.1333 233.954 34.656 232.759 40.8C236.172 40.288 239.628 39.5627 243.127 38.624C243.724 40.416 244.023 42.72 244.023 45.536C244.023 48.352 242.914 50.9973 240.695 53.472C238.562 55.8613 235.404 57.056 231.223 57.056H229.303C226.231 70.9653 224.695 81.6747 224.695 89.184C224.695 96.6933 226.018 101.941 228.663 104.928C223.884 109.109 218.807 111.2 213.431 111.2C208.055 111.2 204.172 109.621 201.783 106.464C199.479 103.221 198.327 98.2293 198.327 91.488C198.327 87.392 199.82 76.64 202.807 59.232C199.394 59.8293 196.108 60.6827 192.951 61.792ZM314.114 40.928C318.893 40.928 322.989 42.848 326.402 46.688C329.901 50.528 331.65 56.1173 331.65 63.456C331.65 70.7093 330.37 77.4507 327.81 83.68C325.25 89.824 321.879 94.8587 317.698 98.784C313.517 102.709 308.781 105.781 303.49 108C298.199 110.133 292.781 111.2 287.234 111.2C276.055 111.2 267.223 108.128 260.738 101.984C254.253 95.84 251.01 87.6907 251.01 77.536C251.01 63.7973 255.405 52.6613 264.194 44.128C273.069 35.5093 284.333 31.2 297.986 31.2C301.058 31.2 304.13 31.5413 307.202 32.224C308.141 35.04 308.653 38.24 308.738 41.824C310.53 41.2267 312.322 40.928 314.114 40.928ZM298.37 58.72C298.37 56.3307 298.925 53.6427 300.034 50.656C301.229 47.6693 303.106 45.28 305.666 43.488C294.402 45.8773 286.637 50.4427 282.37 57.184C278.701 62.9867 276.866 68.96 276.866 75.104C276.866 81.248 278.103 86.1973 280.578 89.952C283.138 93.6213 286.381 95.456 290.306 95.456C299.01 95.456 305.154 89.7813 308.738 78.432C301.826 74.1653 298.37 67.5947 298.37 58.72ZM384.622 48.224C381.465 49.1627 378.947 50.528 377.07 52.32C375.193 54.0267 373.529 56.5013 372.078 59.744C386.499 61.8773 396.654 64.9493 402.542 68.96C408.43 72.9707 411.374 78.688 411.374 86.112C411.374 90.8053 410.051 94.9013 407.406 98.4C404.761 101.813 401.433 104.416 397.422 106.208C389.571 109.536 381.849 111.2 374.254 111.2C352.665 111.2 341.87 106.549 341.87 97.248C341.87 92.5547 343.961 87.8613 348.142 83.168C350.275 86.1547 353.475 88.7147 357.742 90.848C362.094 92.9813 366.318 94.048 370.414 94.048C377.497 94.048 381.763 90.9333 383.214 84.704C370.243 83.168 360.857 80.2667 355.054 76C349.251 71.7333 346.35 65.7173 346.35 57.952C346.35 51.808 348.355 46.6453 352.366 42.464C356.462 38.2827 361.497 35.3813 367.47 33.76C373.529 32.0533 380.313 31.2 387.822 31.2C395.417 31.2 401.646 32.6507 406.51 35.552C411.459 38.368 413.934 41.824 413.934 45.92C413.934 50.016 412.483 53.1733 409.582 55.392C406.766 57.6107 403.651 58.72 400.238 58.72C396.91 58.72 393.838 57.824 391.022 56.032C388.291 54.24 386.158 51.6373 384.622 48.224Z" fill="#00A3FF"/>
</svg>
